<mxfile host="65bd71144e">
    <diagram id="cuWj4NXtwMVzYUaR1tKB" name="Страница 1">
        <mxGraphModel dx="639" dy="261" grid="1" gridSize="10" guides="1" tooltips="1" connect="1" arrows="1" fold="1" page="1" pageScale="1" pageWidth="827" pageHeight="1169" math="0" shadow="0">
            <root>
                <mxCell id="0"/>
                <mxCell id="1" parent="0"/>
                <mxCell id="2" value="Начало" style="ellipse;whiteSpace=wrap;html=1;fillColor=#d80073;fontColor=#ffffff;strokeColor=#A50040;" vertex="1" parent="1">
                    <mxGeometry x="250" y="30" width="140" height="50" as="geometry"/>
                </mxCell>
                <mxCell id="3" value="&lt;font style=&quot;font-size: 14px&quot;&gt;&lt;u&gt;Общий алгоритм&lt;/u&gt;&lt;/font&gt;" style="text;html=1;align=center;verticalAlign=middle;resizable=0;points=[];autosize=1;strokeColor=none;fillColor=none;" vertex="1" parent="1">
                    <mxGeometry x="10" y="45" width="130" height="20" as="geometry"/>
                </mxCell>
                <mxCell id="4" value="Вводим число&lt;br&gt;int a" style="shape=parallelogram;perimeter=parallelogramPerimeter;whiteSpace=wrap;html=1;fixedSize=1;fontSize=14;fillColor=#008a00;fontColor=#ffffff;strokeColor=#005700;" vertex="1" parent="1">
                    <mxGeometry x="250" y="100" width="140" height="60" as="geometry"/>
                </mxCell>
                <mxCell id="5" value="int number = Math.Abs(a)&lt;br&gt;int summ = number % 10" style="rounded=0;whiteSpace=wrap;html=1;fontSize=14;fillColor=#1ba1e2;fontColor=#ffffff;strokeColor=#006EAF;" vertex="1" parent="1">
                    <mxGeometry x="244" y="190" width="170" height="60" as="geometry"/>
                </mxCell>
                <mxCell id="6" value="number /10 &amp;gt; 0" style="rhombus;whiteSpace=wrap;html=1;fontSize=14;fillColor=#e6d0de;strokeColor=#996185;gradientColor=#d5739d;" vertex="1" parent="1">
                    <mxGeometry x="249" y="280" width="160" height="80" as="geometry"/>
                </mxCell>
                <mxCell id="7" value="number = number/10&lt;br&gt;summ = summ + number % 10" style="rounded=0;whiteSpace=wrap;html=1;fontSize=14;fillColor=#1ba1e2;fontColor=#ffffff;strokeColor=#006EAF;" vertex="1" parent="1">
                    <mxGeometry x="228" y="390" width="202" height="60" as="geometry"/>
                </mxCell>
            </root>
        </mxGraphModel>
    </diagram>
</mxfile>